<svg xmlns="http://www.w3.org/2000/svg" width="800" height="560" viewBox="0 0 800 560">
<defs>
  <marker id="arrow" markerWidth="8" markerHeight="8" refX="7" refY="4" orient="auto"><path d="M0,0 L8,4 L0,8 z" fill="#172033"/></marker>
  <marker id="arrowRed" markerWidth="8" markerHeight="8" refX="7" refY="4" orient="auto"><path d="M0,0 L8,4 L0,8 z" fill="#c94141"/></marker>
  <pattern id="hatch" width="8" height="8" patternUnits="userSpaceOnUse" patternTransform="rotate(45)"><line x1="0" y1="0" x2="0" y2="8" stroke="#b7c0cf" stroke-width="2"/></pattern>
  <style>
    text { font-family: Segoe UI, Arial, sans-serif; fill:#172033; }
    .t { font-size:22px; font-weight:700; } .s { font-size:12px; fill:#5c667a; }
    .l { font-size:13px; } .sm { font-size:11px; } .dim { font-size:11px; fill:#5c667a; }
    .outline { stroke:#172033; stroke-width:1.5; fill:none; }
    .thin { stroke:#5c667a; stroke-width:1; fill:none; }
    .dash { stroke:#c94141; stroke-width:1.5; stroke-dasharray:7 5; fill:none; }
    .axis { stroke:#172033; stroke-width:1.5; marker-end:url(#arrow); fill:none; }
  </style>
</defs>
<rect width="800" height="560" fill="#fbfcfe"/>
<text x="32" y="38" class="t">Concept B — top envelope</text>
<text x="32" y="59" class="s">Conservative installed fastener + reserved harness envelope</text>
<rect x="621" y="22" width="147" height="28" rx="5" fill="#fff0d6" stroke="#d8841c"/>
<text x="694.5" y="41" class="sm" text-anchor="middle" fill="#8b4d00">NOT FOR FABRICATION</text>
<line x1="32" y1="72" x2="768" y2="72" stroke="#d8dee9"/>
<g transform="translate(555 86)">
<rect width="210" height="75" rx="6" fill="white" stroke="#d8dee9"/>
<rect x="12" y="12" width="15" height="10" fill="#6dc5c1"/><text x="35" y="21" class="sm">zirconia / ceramic datum</text>
<rect x="12" y="31" width="15" height="10" fill="#d7a85e"/><text x="35" y="40" class="sm">CP-Ti frame / retention</text>
<rect x="12" y="50" width="15" height="10" fill="#d97745"/><text x="35" y="59" class="sm">bonded LCC cartridge</text></g><circle cx="330" cy="300" r="214.3" fill="none" stroke="#c94141" stroke-width="2" stroke-dasharray="8 5"/>
<text x="330" y="75.7" class="l" text-anchor="middle">Ø31.75 hard envelope</text>
<line x1="115.7" y1="300" x2="544.3" y2="300" class="thin"/><line x1="330" y1="85.7" x2="330" y2="514.3" class="thin"/>
<circle cx="208.5" cy="421.5" r="15.5" fill="#d7a85e" stroke="#8a5d20"/><circle cx="208.5" cy="178.5" r="15.5" fill="#d7a85e" stroke="#8a5d20"/><circle cx="451.5" cy="421.5" r="15.5" fill="#d7a85e" stroke="#8a5d20"/><circle cx="451.5" cy="178.5" r="15.5" fill="#d7a85e" stroke="#8a5d20"/><rect x="224.7" y="228.4" width="40.5" height="40.5" fill="#7b61b8" fill-opacity=".35" stroke="#7b61b8"/><rect x="361.1" y="364.8" width="40.5" height="40.5" fill="#7b61b8" fill-opacity=".35" stroke="#7b61b8"/><rect x="224.7" y="331.1" width="40.5" height="40.5" fill="#7b61b8" fill-opacity=".35" stroke="#7b61b8"/><rect x="224.7" y="194.7" width="210.6" height="210.6" fill="#d7a85e" fill-opacity=".25" stroke="#8a5d20" stroke-width="2"/><rect x="253.7" y="223.7" width="152.6" height="152.6" fill="#6dc5c1" fill-opacity=".65" stroke="#277d7a"/><circle cx="330" cy="300" r="193.8" fill="none" stroke="#258552" stroke-dasharray="3 4"/>
<line x1="330" y1="300" x2="523.8" y2="300" stroke="#258552" marker-end="url(#arrow)"/>
<text x="555" y="205" class="l">Kernel result</text><text x="555" y="228" class="sm">conservative radius 14.354</text>
<text x="555" y="247" class="sm" fill="#258552">radial margin 1.521 PASS</text>
<text x="555" y="280" class="l">Installed reservations</text><text x="555" y="303" class="sm">4 posts: centers ±9.0, r 1.15</text>
<text x="555" y="322" class="sm">3 harness corridors: 3.0 × 3.0</text><text x="555" y="341" class="sm">fastener heads included in CAD</text>
<text x="555" y="376" class="l">HOLD</text><text x="555" y="399" class="sm">actual wire OD and bend radius</text><text x="555" y="418" class="sm">mated 19C datum confirmation</text><line x1="32" y1="526" x2="768" y2="526" stroke="#d8dee9"/>
<text x="32" y="546" class="s">Bounding-box radius combines independent X/Y extrema and is conservative; all installed modeled solids pass.</text></svg>