<svg xmlns="http://www.w3.org/2000/svg" width="1400" height="900" viewBox="0 0 1400 900">
  <defs>
    <style>
      .title{font:700 28px Arial;fill:#13233a}.h{font:700 18px Arial;fill:#13233a}.t{font:14px Arial;fill:#1f2937}.s{font:12px Arial;fill:#334155}.pad{fill:#f5c451;stroke:#6b4f00;stroke-width:1.4}.die{fill:#dbeafe;stroke:#1d4ed8;stroke-width:2}.bond{stroke:#dc2626;stroke-width:3;fill:none}.lane{stroke:#047857;stroke-width:3;fill:none}.hold{fill:#fff7ed;stroke:#c2410c;stroke-width:2}.pass{fill:#ecfdf5;stroke:#047857;stroke-width:2}.table{fill:#f8fafc;stroke:#94a3b8}.axis{stroke:#64748b;stroke-width:1.2}.reject{stroke:#b91c1c;stroke-width:2;stroke-dasharray:7 5;fill:none}
    </style>
    <marker id="arrow" markerWidth="8" markerHeight="8" refX="7" refY="4" orient="auto"><path d="M0,0 L8,4 L0,8 z" fill="#047857"/></marker>
  </defs>
  <rect width="1400" height="900" fill="white"/>
  <text x="45" y="48" class="title">FINAL CONTROLLED MAP — CAVITY UP, CHAMFER LOWER RIGHT</text>
  <text x="45" y="76" class="t">All dimensions in mm. Physical q locations are fixed; p1–p4 identities remain P(q) until the signed microscope/GDS traveler.</text>

  <text x="65" y="120" class="h">A. LCC02046 physical map</text>
  <rect x="95" y="160" width="430" height="430" rx="8" fill="#fafafa" stroke="#26364d" stroke-width="3"/>
  <polygon points="485,590 525,550 525,590" fill="#26364d"/>
  <text x="390" y="615" class="t">Chamfer / Datum A: lower right</text>

  <!-- top 8..4 -->
  <g class="pad">
    <rect x="130" y="140" width="54" height="38"/><rect x="202" y="140" width="54" height="38"/><rect x="274" y="140" width="54" height="38"/><rect x="346" y="140" width="54" height="38"/><rect x="418" y="140" width="54" height="38"/>
    <rect x="507" y="195" width="38" height="54"/><rect x="507" y="267" width="38" height="54"/><rect x="507" y="339" width="38" height="54"/><rect x="507" y="411" width="38" height="54"/><rect x="507" y="483" width="38" height="54"/>
    <rect x="130" y="572" width="54" height="38"/><rect x="202" y="572" width="54" height="38"/><rect x="274" y="572" width="54" height="38"/><rect x="346" y="572" width="54" height="38"/><rect x="418" y="572" width="54" height="38"/>
    <rect x="75" y="195" width="38" height="54"/><rect x="75" y="267" width="38" height="54"/><rect x="75" y="339" width="38" height="54"/><rect x="75" y="411" width="38" height="54"/><rect x="75" y="483" width="38" height="54"/>
  </g>
  <g class="t" text-anchor="middle">
    <text x="157" y="165">8</text><text x="229" y="165">7</text><text x="301" y="165">6</text><text x="373" y="165">5</text><text x="445" y="165">4</text>
    <text x="526" y="227">3</text><text x="526" y="299">2</text><text x="526" y="371">1</text><text x="526" y="443">20</text><text x="526" y="515">19</text>
    <text x="157" y="597">14</text><text x="229" y="597">15</text><text x="301" y="597">16</text><text x="373" y="597">17</text><text x="445" y="597">18</text>
    <text x="94" y="227">9</text><text x="94" y="299">10</text><text x="94" y="371">11</text><text x="94" y="443">12</text><text x="94" y="515">13</text>
  </g>
  <rect x="245" y="285" width="150" height="150" class="die"/>
  <circle cx="320" cy="285" r="7" fill="#dc2626"/><circle cx="395" cy="360" r="7" fill="#dc2626"/><circle cx="320" cy="435" r="7" fill="#dc2626"/><circle cx="245" cy="360" r="7" fill="#dc2626"/>
  <text x="320" y="270" class="t" text-anchor="middle">q1 / P(q1)</text><text x="408" y="365" class="t">q2 / P(q2)</text><text x="320" y="458" class="t" text-anchor="middle">q3 / P(q3)</text><text x="130" y="365" class="t">q4 / P(q4)</text>
  <path d="M320 285 L157 178" class="bond"/><path d="M395 360 L507 222" class="bond"/><path d="M320 435 L507 510" class="bond"/><path d="M245 360 L157 572" class="bond"/>
  <text x="145" y="130" class="s">q1 → shelf 8</text><text x="548" y="220" class="s">q2 → shelf 3</text><text x="405" y="645" class="s">q3 → shelf 19</text><text x="130" y="645" class="s">q4 → shelf 14</text>

  <rect x="65" y="680" width="510" height="150" rx="8" class="pass"/>
  <text x="85" y="710" class="h">Selected external connection</text>
  <text x="85" y="739" class="s">8/3/19/14 → same-numbered castellation → L1/L2/L3/L4 fanout tongue</text>
  <text x="85" y="761" class="s">→ qualified weld or exact-contact crimp pigtail → remote service disconnect.</text>
  <text x="85" y="783" class="s">No solder. No load through shelf, castellation, bond, lane, weld or crimp.</text>
  <text x="85" y="805" class="s">User routes 8↔4, 3↔9, 19↔13, 14↔18 are normalized but rejected.</text>
  <text x="85" y="824" class="s">They are not the production one-side connection.</text>

  <text x="620" y="120" class="h">B. Orientation and terminal rule</text>
  <rect x="620" y="140" width="730" height="118" rx="8" class="hold"/>
  <text x="642" y="170" class="h">HOLD — DO NOT BOND</text>
  <text x="642" y="198" class="t">Record P(q1), P(q2), P(q3), P(q4) from authoritative die evidence. No mirror.</text>
  <text x="642" y="223" class="t">Only then apply: p1→J1.1, p3→J1.2, p2→J1.6, p4→J1.7.</text>
  <text x="642" y="246" class="s">The 14/18 notation is closed: q4 lands on shelf 14; 14↔18 was an unordered user jumper drawn in the mirrored bottom view.</text>

  <text x="620" y="300" class="h">C. Final 12-conductor map</text>
  <rect x="620" y="320" width="730" height="430" class="table"/>
  <g class="axis">
    <line x1="620" y1="358" x2="1350" y2="358"/><line x1="620" y1="466" x2="1350" y2="466"/><line x1="620" y1="574" x2="1350" y2="574"/><line x1="620" y1="682" x2="1350" y2="682"/>
    <line x1="700" y1="320" x2="700" y2="750"/><line x1="800" y1="320" x2="800" y2="750"/><line x1="915" y1="320" x2="915" y2="750"/><line x1="1045" y1="320" x2="1045" y2="750"/><line x1="1165" y1="320" x2="1165" y2="750"/>
  </g>
  <g class="t" text-anchor="middle">
    <text x="660" y="346">Axis</text><text x="750" y="346">Terminals</text><text x="857" y="346">Vacuum V</text><text x="980" y="346">Air cavities</text><text x="1105" y="346">Pairs</text><text x="1257" y="346">Board J1</text>
    <text x="660" y="413">X</text><text x="750" y="400">p1 p3</text><text x="750" y="426">p2 p4</text><text x="857" y="400">V1 V2</text><text x="857" y="426">V3 V4</text><text x="980" y="400">A1 A12</text><text x="980" y="426">A11 A10</text><text x="1105" y="400">XA</text><text x="1105" y="426">XB</text><text x="1257" y="413">1 2 6 7</text>
    <text x="660" y="521">Y</text><text x="750" y="508">p1 p3</text><text x="750" y="534">p2 p4</text><text x="857" y="508">V5 V6</text><text x="857" y="534">V7 V8</text><text x="980" y="508">A9 A8</text><text x="980" y="534">A7 A6</text><text x="1105" y="508">YA</text><text x="1105" y="534">YB</text><text x="1257" y="521">1 2 6 7</text>
    <text x="660" y="629">Z</text><text x="750" y="616">p1 p3</text><text x="750" y="642">p2 p4</text><text x="857" y="616">V9 V10</text><text x="857" y="642">V11 V12</text><text x="980" y="616">A5 A4</text><text x="980" y="642">A3 A2</text><text x="1105" y="616">ZA</text><text x="1105" y="642">ZB</text><text x="1257" y="629">1 2 6 7</text>
    <text x="660" y="718">Spare</text><text x="750" y="718">none</text><text x="857" y="706">V13–V19</text><text x="980" y="706">A14 A13 A18</text><text x="980" y="730">A17 A16 A15 A19</text><text x="1105" y="718">none</text><text x="1257" y="718">capped</text>
  </g>
  <rect x="620" y="775" width="730" height="65" rx="7" class="pass"/>
  <text x="642" y="802" class="t">Six pair screens terminate at CF flange/chassis only. No screen, ground or shared return uses V1–V19.</text>
  <text x="642" y="827" class="s">First-article V1–V19 mirror continuity is controlling because connector numbers are not printed.</text>
  <text x="45" y="875" class="s">Drawing 50_final_lcc_and_pin_map.svg — NOT A BOND/TRIM TRAVELER until all orange HOLD items close.</text>
</svg>
